<svg id="Layer_1" data-name="Layer 1" xmlns="http://www.w3.org/2000/svg" viewBox="0 0 87.05 187.27"><defs><style>.cls-1{fill:#a1cc3a;}</style></defs><title>correct mark</title><path class="cls-1" d="M341.16,318.06a43.53,43.53,0,1,0-46.76,43.39,3.48,3.48,0,0,0-.26,1.34v95.52a3.5,3.5,0,1,0,7,0V362.79a3.48,3.48,0,0,0-.27-1.34A43.51,43.51,0,0,0,341.16,318.06ZM291,343a4.37,4.37,0,0,1-6.62.47L265.83,325a4.41,4.41,0,0,1,6.24-6.24l15.36,15.36,35.78-35.78a4.41,4.41,0,0,1,6.23,6.23Z" transform="translate(-254.11 -274.54)"/></svg>