<?xml version="1.0" encoding="iso-8859-1"?>
<!-- Generator: Adobe Illustrator 19.0.0, SVG Export Plug-In . SVG Version: 6.00 Build 0)  -->
<svg version="1.1" id="Capa_1" xmlns="http://www.w3.org/2000/svg" xmlns:xlink="http://www.w3.org/1999/xlink" x="0px" y="0px"
	 viewBox="0 0 496 496" style="enable-background:new 0 0 496 496;" xml:space="preserve">
<g>
	<path style="fill:#FFA64D;" d="M320,120c0-22.088-17.912-40-40-40c-13.144,0-24.712,6.432-32,16.216
		C240.712,86.432,229.144,80,216,80c-22.088,0-40,17.912-40,40c-17.672,0-32,14.328-32,32c0,13.256,46.56,24,104,24
		s104-10.744,104-24C352,134.328,337.672,120,320,120z"/>
	<rect x="352" y="88" style="fill:#FFA64D;" width="16" height="16"/>
	<rect x="392" y="128" style="fill:#FFA64D;" width="16" height="16"/>
</g>
<g>
	<path style="fill:#333333;" d="M345.312,343.496L304,337.136v-8.288c26.92-15.624,46.784-42.072,53.488-73.4
		C376.928,252.736,392,236.176,392,216c0-19.312-13.768-35.472-32-39.192V152c0-19.52-14.08-35.768-32.608-39.256
		C323.88,89.72,304,72,280,72c-12.008,0-23.264,4.416-32,12.352C239.264,76.416,228.008,72,216,72c-24,0-43.88,17.72-47.392,40.744
		C150.08,116.232,136,132.48,136,152v24.808c-18.232,3.72-32,19.872-32,39.192c0,20.176,15.072,36.736,34.512,39.448
		c6.704,31.328,26.568,57.776,53.488,73.4v8.288l-41.312,6.352c-36.952,5.688-68.048,32.424-79.192,68.12L45.12,496h405.76
		l-26.376-84.392C413.36,375.912,382.264,349.176,345.312,343.496z M288,342.832C286.624,347,278.216,368,248,368
		c-30.208,0-38.6-20.904-40-25.168v-6.344c12.44,4.784,25.896,7.512,40,7.512s27.56-2.728,40-7.512V342.832z M230.896,381.792
		l-33.984,33.984l-12.264-61.32l10.12-1.56C199.76,363.56,211.088,376.744,230.896,381.792z M248,387.312l21.704,21.704
		l-14.056,21.088L262.776,480h-29.544l7.128-49.888l-14.056-21.088L248,387.312z M265.104,381.792
		c19.808-5.048,31.144-18.232,36.128-28.896l10.12,1.56l-12.264,61.32L265.104,381.792z M376,216
		c0,10.536-6.872,19.416-16.336,22.632C359.792,236.424,360,234.24,360,232v-38.528C369.288,196.784,376,205.584,376,216z M176,128
		c13.232,0,24,10.768,24,24h16c0-19.016-13.376-34.912-31.192-38.952C188,98.744,200.744,88,216,88c9.336,0,17.88,4.184,24,11.304
		V152h16V99.304C262.12,92.184,270.664,88,280,88c15.256,0,28,10.744,31.192,25.048C293.376,117.088,280,132.984,280,152h16
		c0-13.232,10.768-24,24-24c13.048,0,23.64,10.472,23.944,23.448C339.864,157.52,305.144,168,248,168s-91.864-10.48-95.944-16.552
		C152.36,138.472,162.952,128,176,128z M120,216c0-10.416,6.712-19.216,16-22.528V232c0,2.24,0.208,4.424,0.336,6.632
		C126.872,235.416,120,226.536,120,216z M152,232v-61.832C180.856,183.496,239.416,184,248,184c8.584,0,67.144-0.504,96-13.832V232
		c0,52.936-43.064,96-96,96S152,284.936,152,232z M86.76,416.376c9.352-29.896,35.4-52.304,66.368-57.072l15.696-2.416
		l18.264,91.336l27.672-27.672l8.888,13.336L217.056,480h-72l6.872-55.008l-15.872-1.984L128.936,480H66.88L86.76,416.376z
		 M367.064,480l-7.128-56.992l-15.872,1.984L350.936,480h-72l-6.592-46.112l8.888-13.336l27.672,27.672l18.264-91.336l15.696,2.416
		c30.968,4.768,57.016,27.168,66.368,57.072L429.12,480H367.064z"/>
	<path style="fill:#333333;" d="M200,240c-8.824,0-16-7.176-16-16h-16c0,17.648,14.352,32,32,32s32-14.352,32-32h-16
		C216,232.824,208.824,240,200,240z"/>
	<path style="fill:#333333;" d="M296,256c17.648,0,32-14.352,32-32h-16c0,8.824-7.176,16-16,16s-16-7.176-16-16h-16
		C264,241.648,278.352,256,296,256z"/>
	<path style="fill:#333333;" d="M496,40c0-22.056-17.944-40-40-40c-20.792,0-37.736,16.008-39.624,36.312L380.688,72l16,16
		l-34.344,34.344l11.312,11.312L408,99.312l16,16l35.688-35.688C479.992,77.736,496,60.792,496,40z M403.312,72l16.048-16.048
		c4.04,9.232,11.448,16.648,20.688,20.688L424,92.688L403.312,72z M456,64c-13.232,0-24-10.768-24-24s10.768-24,24-24
		s24,10.768,24,24S469.232,64,456,64z"/>
	<path style="fill:#333333;" d="M72,115.312l16-16l34.344,34.344l11.312-11.312L99.312,88l16-16L79.624,36.312
		C77.736,16.008,60.792,0,40,0C17.944,0,0,17.944,0,40c0,20.792,16.008,37.736,36.312,39.624L72,115.312z M72,92.688L55.952,76.64
		C65.184,72.6,72.6,65.192,76.64,55.952L92.688,72L72,92.688z M16,40c0-13.232,10.768-24,24-24s24,10.768,24,24S53.232,64,40,64
		S16,53.232,16,40z"/>
</g>
<g>
	<rect x="128" y="88" style="fill:#FFA64D;" width="16" height="16"/>
	<rect x="88" y="128" style="fill:#FFA64D;" width="16" height="16"/>
</g>
<g>
</g>
<g>
</g>
<g>
</g>
<g>
</g>
<g>
</g>
<g>
</g>
<g>
</g>
<g>
</g>
<g>
</g>
<g>
</g>
<g>
</g>
<g>
</g>
<g>
</g>
<g>
</g>
<g>
</g>
</svg>
