<svg id="Layer_1" data-name="Layer 1" xmlns="http://www.w3.org/2000/svg" viewBox="0 0 87.05 187.27"><defs><style>.cls-1{fill:#ec2a31;}</style></defs><title>incorrect mark</title><path class="cls-1" d="M341.16,341.45a43.53,43.53,0,1,0-46.76,43.39,3.47,3.47,0,0,0-.26,1.33v95.52a3.5,3.5,0,0,0,7,0V386.17a3.47,3.47,0,0,0-.27-1.33A43.52,43.52,0,0,0,341.16,341.45Zm-18,18.82a5,5,0,0,1-7.07,7.07l-18.42-18.43-18.43,18.43a5,5,0,0,1-7.07-7.07l18.43-18.43-18.43-18.42a5,5,0,1,1,7.07-7.07l18.43,18.42,18.42-18.42a5,5,0,1,1,7.07,7.07l-18.42,18.42Z" transform="translate(-254.11 -297.92)"/></svg>